<svg xmlns="http://www.w3.org/2000/svg" xmlns:xlink="http://www.w3.org/1999/xlink" width="500" zoomAndPan="magnify" viewBox="0 0 375 374.999991" height="500" preserveAspectRatio="xMidYMid meet" version="1.0"><defs><g/><clipPath id="cdf7d3b2c9"><path d="M 88.433594 135 L 182.183594 135 L 182.183594 240 L 88.433594 240 Z M 88.433594 135 " clip-rule="nonzero"/></clipPath></defs><rect x="-37.5" width="450" fill="#ffffff" y="-37.499999" height="449.999989" fill-opacity="1"/><rect x="-37.5" width="450" fill="#f9f8f9" y="-37.499999" height="449.999989" fill-opacity="1"/><g clip-path="url(#cdf7d3b2c9)"><path fill="#f68716" d="M 88.4375 135 L 113.242188 135 C 99.410156 135 88.4375 146.6875 88.4375 161.289062 Z M 147.75 170.996094 C 147.75 151.03125 132.542969 135 113.597656 135 C 118.710938 135.140625 122.808594 139.457031 122.808594 144.847656 L 122.808594 202.015625 C 122.808594 223.050781 139.007812 239.988281 158.832031 239.988281 C 152.726562 239.988281 147.75 234.738281 147.75 228.304688 Z M 182.261719 135 L 157.210938 135 C 170.902344 135 182.261719 146.6875 182.261719 161.289062 Z M 182.261719 135 " fill-opacity="1" fill-rule="nonzero"/></g><g fill="#373636" fill-opacity="1"><g transform="translate(155.004303, 203.131003)"><g><path d="M 28.765625 -32.359375 L 34.21875 -32.359375 L 18.828125 1.3125 C 17.660156 3.875 16.488281 5.90625 15.3125 7.40625 C 14.132812 8.90625 12.816406 9.972656 11.359375 10.609375 C 9.898438 11.242188 8.148438 11.5625 6.109375 11.5625 L 3.0625 11.5625 L 3.0625 6.953125 L 5.6875 6.953125 C 7.132812 6.953125 8.316406 6.757812 9.234375 6.375 C 10.148438 6 10.976562 5.332031 11.71875 4.375 C 12.457031 3.414062 13.265625 2.035156 14.140625 0.234375 L 15.28125 -2.21875 L 0.90625 -32.359375 L 6.46875 -32.359375 L 17.984375 -7.859375 Z M 28.765625 -32.359375 "/></g></g></g><g fill="#373636" fill-opacity="1"><g transform="translate(186.708249, 203.131003)"><g><path d="M 22.296875 -33.078125 C 25.535156 -33.078125 28.398438 -32.335938 30.890625 -30.859375 C 33.390625 -29.390625 35.359375 -27.382812 36.796875 -24.84375 C 38.234375 -22.300781 38.953125 -19.414062 38.953125 -16.1875 C 38.953125 -12.988281 38.234375 -10.109375 36.796875 -7.546875 C 35.359375 -4.992188 33.390625 -2.976562 30.890625 -1.5 C 28.398438 -0.0195312 25.535156 0.71875 22.296875 0.71875 C 19.898438 0.71875 17.660156 0.269531 15.578125 -0.625 C 13.503906 -1.53125 11.726562 -2.757812 10.25 -4.3125 L 10.25 11.5625 L 5.15625 11.5625 L 5.15625 -32.359375 L 8.625 -32.359375 L 9.65625 -27.390625 C 11.164062 -29.148438 13.007812 -30.535156 15.1875 -31.546875 C 17.363281 -32.566406 19.734375 -33.078125 22.296875 -33.078125 Z M 21.9375 -4.203125 C 24.21875 -4.203125 26.253906 -4.71875 28.046875 -5.75 C 29.847656 -6.789062 31.257812 -8.21875 32.28125 -10.03125 C 33.300781 -11.851562 33.8125 -13.90625 33.8125 -16.1875 C 33.8125 -18.457031 33.300781 -20.5 32.28125 -22.3125 C 31.257812 -24.132812 29.847656 -25.566406 28.046875 -26.609375 C 26.253906 -27.648438 24.21875 -28.171875 21.9375 -28.171875 C 19.65625 -28.171875 17.613281 -27.640625 15.8125 -26.578125 C 14.019531 -25.523438 12.601562 -24.097656 11.5625 -22.296875 C 10.53125 -20.492188 10.015625 -18.457031 10.015625 -16.1875 C 10.015625 -13.90625 10.53125 -11.863281 11.5625 -10.0625 C 12.601562 -8.269531 14.019531 -6.84375 15.8125 -5.78125 C 17.613281 -4.726562 19.65625 -4.203125 21.9375 -4.203125 Z M 21.9375 -4.203125 "/></g></g></g><g fill="#373636" fill-opacity="1"><g transform="translate(224.824977, 203.131003)"><g><path d="M 4.921875 -38 L 4.921875 -43.8125 L 10.421875 -43.8125 L 10.421875 -38 Z M 5.15625 0 L 5.15625 -32.359375 L 10.25 -32.359375 L 10.25 0 Z M 5.15625 0 "/></g></g></g><g fill="#373636" fill-opacity="1"><g transform="translate(236.751193, 203.131003)"><g><path d="M 21.34375 -33.078125 C 23.894531 -33.078125 26.109375 -32.488281 27.984375 -31.3125 C 29.867188 -30.132812 31.3125 -28.503906 32.3125 -26.421875 C 33.3125 -24.347656 33.8125 -21.992188 33.8125 -19.359375 L 33.8125 0 L 28.703125 0 L 28.703125 -18.15625 C 28.703125 -21.476562 27.953125 -24.015625 26.453125 -25.765625 C 24.960938 -27.523438 22.816406 -28.40625 20.015625 -28.40625 C 18.179688 -28.40625 16.523438 -27.9375 15.046875 -27 C 13.566406 -26.0625 12.394531 -24.769531 11.53125 -23.125 C 10.675781 -21.488281 10.25 -19.675781 10.25 -17.6875 L 10.25 0 L 5.15625 0 L 5.15625 -32.359375 L 8.75 -32.359375 L 9.765625 -27.265625 C 10.960938 -29.066406 12.5625 -30.484375 14.5625 -31.515625 C 16.5625 -32.554688 18.820312 -33.078125 21.34375 -33.078125 Z M 21.34375 -33.078125 "/></g></g></g><g fill="#242424" fill-opacity="1"><g transform="translate(166.762503, 231.942367)"><g><path d="M 4.125 -2.4375 L 4.125 0 L 2.53125 0 L 2.53125 -2.46875 L -0.140625 -6.890625 L 1.5625 -6.890625 L 3.390625 -3.828125 L 5.234375 -6.890625 L 6.796875 -6.890625 Z M 4.125 -2.4375 "/></g></g></g><g fill="#242424" fill-opacity="1"><g transform="translate(175.591865, 231.942367)"><g><path d="M 3.796875 -6.890625 C 4.410156 -6.890625 4.941406 -6.785156 5.390625 -6.578125 C 5.835938 -6.378906 6.179688 -6.09375 6.421875 -5.71875 C 6.671875 -5.34375 6.796875 -4.898438 6.796875 -4.390625 C 6.796875 -3.878906 6.671875 -3.4375 6.421875 -3.0625 C 6.179688 -2.6875 5.835938 -2.398438 5.390625 -2.203125 C 4.941406 -2.003906 4.410156 -1.90625 3.796875 -1.90625 L 2.40625 -1.90625 L 2.40625 0 L 0.8125 0 L 0.8125 -6.890625 Z M 3.71875 -3.203125 C 4.195312 -3.203125 4.554688 -3.300781 4.796875 -3.5 C 5.046875 -3.707031 5.171875 -4.003906 5.171875 -4.390625 C 5.171875 -4.773438 5.046875 -5.070312 4.796875 -5.28125 C 4.554688 -5.488281 4.195312 -5.59375 3.71875 -5.59375 L 2.40625 -5.59375 L 2.40625 -3.203125 Z M 3.71875 -3.203125 "/></g></g></g><g fill="#242424" fill-opacity="1"><g transform="translate(184.972442, 231.942367)"><g><path d="M 0.8125 -6.890625 L 2.40625 -6.890625 L 2.40625 0 L 0.8125 0 Z M 0.8125 -6.890625 "/></g></g></g><g fill="#242424" fill-opacity="1"><g transform="translate(190.376364, 231.942367)"><g><path d="M 7.140625 -6.890625 L 7.140625 0 L 5.828125 0 L 2.390625 -4.1875 L 2.390625 0 L 0.8125 0 L 0.8125 -6.890625 L 2.140625 -6.890625 L 5.5625 -2.703125 L 5.5625 -6.890625 Z M 7.140625 -6.890625 "/></g></g></g><g fill="#242424" fill-opacity="1"><g transform="translate(200.505036, 231.942367)"><g><path d="M 5.46875 -3.546875 L 6.9375 -3.546875 L 6.9375 -0.765625 C 6.5625 -0.472656 6.125 -0.25 5.625 -0.09375 C 5.132812 0.0507812 4.640625 0.125 4.140625 0.125 C 3.429688 0.125 2.789062 -0.0234375 2.21875 -0.328125 C 1.644531 -0.640625 1.195312 -1.066406 0.875 -1.609375 C 0.550781 -2.148438 0.390625 -2.765625 0.390625 -3.453125 C 0.390625 -4.128906 0.550781 -4.738281 0.875 -5.28125 C 1.195312 -5.820312 1.644531 -6.242188 2.21875 -6.546875 C 2.800781 -6.859375 3.453125 -7.015625 4.171875 -7.015625 C 4.773438 -7.015625 5.320312 -6.910156 5.8125 -6.703125 C 6.3125 -6.503906 6.726562 -6.207031 7.0625 -5.8125 L 6.03125 -4.875 C 5.539062 -5.394531 4.945312 -5.65625 4.25 -5.65625 C 3.8125 -5.65625 3.421875 -5.5625 3.078125 -5.375 C 2.734375 -5.1875 2.46875 -4.925781 2.28125 -4.59375 C 2.09375 -4.257812 2 -3.878906 2 -3.453125 C 2 -3.023438 2.09375 -2.640625 2.28125 -2.296875 C 2.46875 -1.960938 2.726562 -1.703125 3.0625 -1.515625 C 3.40625 -1.328125 3.796875 -1.234375 4.234375 -1.234375 C 4.691406 -1.234375 5.101562 -1.332031 5.46875 -1.53125 Z M 5.46875 -3.546875 "/></g></g></g><g fill="#242424" fill-opacity="1"><g transform="translate(210.269497, 231.942367)"><g/></g></g><g fill="#242424" fill-opacity="1"><g transform="translate(215.230471, 231.942367)"><g><path d="M 2.25 -5.59375 L 0.046875 -5.59375 L 0.046875 -6.890625 L 6.046875 -6.890625 L 6.046875 -5.59375 L 3.84375 -5.59375 L 3.84375 0 L 2.25 0 Z M 2.25 -5.59375 "/></g></g></g><g fill="#242424" fill-opacity="1"><g transform="translate(223.488918, 231.942367)"><g><path d="M 7.140625 -6.890625 L 7.140625 0 L 5.546875 0 L 5.546875 -2.828125 L 2.40625 -2.828125 L 2.40625 0 L 0.8125 0 L 0.8125 -6.890625 L 2.40625 -6.890625 L 2.40625 -4.171875 L 5.546875 -4.171875 L 5.546875 -6.890625 Z M 7.140625 -6.890625 "/></g></g></g><g fill="#242424" fill-opacity="1"><g transform="translate(233.617589, 231.942367)"><g><path d="M 6.15625 -1.28125 L 6.15625 0 L 0.8125 0 L 0.8125 -6.890625 L 6.03125 -6.890625 L 6.03125 -5.609375 L 2.40625 -5.609375 L 2.40625 -4.109375 L 5.59375 -4.109375 L 5.59375 -2.875 L 2.40625 -2.875 L 2.40625 -1.28125 Z M 6.15625 -1.28125 "/></g></g></g><g fill="#242424" fill-opacity="1"><g transform="translate(242.397738, 231.942367)"><g/></g></g><g fill="#242424" fill-opacity="1"><g transform="translate(247.358711, 231.942367)"><g><path d="M 2.40625 -5.609375 L 2.40625 -3.796875 L 5.59375 -3.796875 L 5.59375 -2.515625 L 2.40625 -2.515625 L 2.40625 0 L 0.8125 0 L 0.8125 -6.890625 L 6.03125 -6.890625 L 6.03125 -5.609375 Z M 2.40625 -5.609375 "/></g></g></g><g fill="#242424" fill-opacity="1"><g transform="translate(255.823876, 231.942367)"><g><path d="M 3.875 0.125 C 2.894531 0.125 2.128906 -0.144531 1.578125 -0.6875 C 1.035156 -1.238281 0.765625 -2.019531 0.765625 -3.03125 L 0.765625 -6.890625 L 2.359375 -6.890625 L 2.359375 -3.09375 C 2.359375 -1.851562 2.867188 -1.234375 3.890625 -1.234375 C 4.390625 -1.234375 4.769531 -1.382812 5.03125 -1.6875 C 5.289062 -1.988281 5.421875 -2.457031 5.421875 -3.09375 L 5.421875 -6.890625 L 7 -6.890625 L 7 -3.03125 C 7 -2.019531 6.722656 -1.238281 6.171875 -0.6875 C 5.628906 -0.144531 4.863281 0.125 3.875 0.125 Z M 3.875 0.125 "/></g></g></g><g fill="#242424" fill-opacity="1"><g transform="translate(265.75568, 231.942367)"><g><path d="M 2.25 -5.59375 L 0.046875 -5.59375 L 0.046875 -6.890625 L 6.046875 -6.890625 L 6.046875 -5.59375 L 3.84375 -5.59375 L 3.84375 0 L 2.25 0 Z M 2.25 -5.59375 "/></g></g></g><g fill="#242424" fill-opacity="1"><g transform="translate(274.014133, 231.942367)"><g><path d="M 3.875 0.125 C 2.894531 0.125 2.128906 -0.144531 1.578125 -0.6875 C 1.035156 -1.238281 0.765625 -2.019531 0.765625 -3.03125 L 0.765625 -6.890625 L 2.359375 -6.890625 L 2.359375 -3.09375 C 2.359375 -1.851562 2.867188 -1.234375 3.890625 -1.234375 C 4.390625 -1.234375 4.769531 -1.382812 5.03125 -1.6875 C 5.289062 -1.988281 5.421875 -2.457031 5.421875 -3.09375 L 5.421875 -6.890625 L 7 -6.890625 L 7 -3.03125 C 7 -2.019531 6.722656 -1.238281 6.171875 -0.6875 C 5.628906 -0.144531 4.863281 0.125 3.875 0.125 Z M 3.875 0.125 "/></g></g></g><g fill="#242424" fill-opacity="1"><g transform="translate(283.94593, 231.942367)"><g><path d="M 5.203125 0 L 3.875 -1.921875 L 2.40625 -1.921875 L 2.40625 0 L 0.8125 0 L 0.8125 -6.890625 L 3.796875 -6.890625 C 4.410156 -6.890625 4.941406 -6.785156 5.390625 -6.578125 C 5.835938 -6.378906 6.179688 -6.09375 6.421875 -5.71875 C 6.671875 -5.34375 6.796875 -4.898438 6.796875 -4.390625 C 6.796875 -3.878906 6.671875 -3.4375 6.421875 -3.0625 C 6.171875 -2.695312 5.820312 -2.414062 5.375 -2.21875 L 6.921875 0 Z M 5.171875 -4.390625 C 5.171875 -4.773438 5.046875 -5.070312 4.796875 -5.28125 C 4.554688 -5.488281 4.195312 -5.59375 3.71875 -5.59375 L 2.40625 -5.59375 L 2.40625 -3.1875 L 3.71875 -3.1875 C 4.195312 -3.1875 4.554688 -3.289062 4.796875 -3.5 C 5.046875 -3.707031 5.171875 -4.003906 5.171875 -4.390625 Z M 5.171875 -4.390625 "/></g></g></g><g fill="#242424" fill-opacity="1"><g transform="translate(293.356051, 231.942367)"><g><path d="M 6.15625 -1.28125 L 6.15625 0 L 0.8125 0 L 0.8125 -6.890625 L 6.03125 -6.890625 L 6.03125 -5.609375 L 2.40625 -5.609375 L 2.40625 -4.109375 L 5.59375 -4.109375 L 5.59375 -2.875 L 2.40625 -2.875 L 2.40625 -1.28125 Z M 6.15625 -1.28125 "/></g></g></g></svg>